<?xml version="1.0" encoding="UTF-8" standalone="yes"?>
<!-- gCAD3D SVG-Export V1.0 -->
<!DOCTYPE svg [
<!ENTITY st_p_1 "stroke:black;stroke-width:0.6">
<!ENTITY st_ltyp2 "stroke:black;stroke-dasharray:4,2;stroke-width:0.2;fill:none">
<!ENTITY st_ltyp3 "stroke:black;stroke-dasharray:6,2,0,2;stroke-width:0.1;fill:none">
<!ENTITY st_t_1 "font-size:10px;font-family:Bitstream Vera Sans">
<!ENTITY st_t_2 "font-size:5px;font-family:Bitstream Vera Sans">
<!ENTITY st_c_dim "stroke:black;stroke-width:0.1">
<!ENTITY st_t_dim "font-size:0.1px;font-family:Verdana">
]>
<svg
  xmlns="http://www.w3.org/2000/svg"
  xmlns:xlink="http://www.w3.org/1999/xlink"
  version="1.1" 
  viewBox="-5 -5 217.1 147.3"
>
<defs>
<style type="text/css"><![CDATA[
  circle { fill:none; stroke:black; stroke-width:0.2}
]]></style>
<style type="text/css"><![CDATA[
  line { stroke:black; stroke-width:0.2}
]]></style>
<style type="text/css"><![CDATA[
  ellipse { fill:none; stroke:black; stroke-width:0.2}
]]></style>
<style type="text/css"><![CDATA[
  path { fill:none; stroke:black; stroke-width:0.2}
]]></style>
<style type="text/css"><![CDATA[
  text { font-size:4px;font-family:Bitstream Vera Sans}
]]></style>
<g id="Arr1"> <path d="M0.1 0 0 0 0.1 -0" style="stroke-width:0.1" />  </g>
<g id="Arr2"> <path d="M-0.1 0 0 0 -0.1 -0" style="stroke-width:0.1" />  </g>
</defs>
<line x1="103.5" y1="68.6" x2="60.6" y2="68.6"/>
<line x1="103.5" y1="68.6" x2="146.4" y2="68.6"/>
<line x1="103.5" y1="68.6" x2="103.5" y2="25.7"/>
<line x1="103.5" y1="68.6" x2="103.5" y2="111.5"/>
<circle cx="103.5" cy="68.6" r="36.9" />
<path d="M81 46.1 81 52.1 74.5 52.1 74.5 58.6 76 63.6 76 66.1 76 71.6 78.5 79.6 82.5 83.6 78 95.6 84 95.6 91 93.1 88 102.1 93 99.6 98 92.6 101.5 101.1 106 101.1 108.5 95.6 113 91.1 119 89.1 120.5 82.6 130 79.6 125 73.6 128 68.6 123.5 65.6 123.5 58.6 126.5 51.6 126.5 48.1 119.5 50.6 115 46.6 107.5 49.1 104 42.1 99.5 44.6 95.5 41.1 91 43.6 91 47.1 81 46.1"/>
</svg>
